<?xml version="1.0" encoding="UTF-8"?>
<!DOCTYPE svg PUBLIC "-//W3C//DTD SVG 1.1//EN" "http://www.w3.org/Graphics/SVG/1.1/DTD/svg11.dtd">
<!-- Creator: CorelDRAW 2020 (64 Bit) -->
<svg xmlns="http://www.w3.org/2000/svg" xml:space="preserve" version="1.1" style="shape-rendering:geometricPrecision; text-rendering:geometricPrecision; image-rendering:optimizeQuality; fill-rule:evenodd; clip-rule:evenodd"
viewBox="794 5137 26854 9602"
 xmlns:xlink="http://www.w3.org/1999/xlink"
 xmlns:xodm="http://www.corel.com/coreldraw/odm/2003">
 <defs>
  <style type="text/css">
   <![CDATA[
    .fil4 {fill:#1DAAB2}
    .fil2 {fill:#1FAFB0}
    .fil3 {fill:#21A9D2}
    .fil1 {fill:#2C419C}
    .fil0 {fill:#2F449F}
    .fil7 {fill:#2FB0D4}
    .fil6 {fill:#31459D}
    .fil8 {fill:#36A5C7}
    .fil13 {fill:#6FB0B0}
    .fil12 {fill:#8CCED1}
    .fil11 {fill:#96ADB8}
    .fil9 {fill:#ABD2D4}
    .fil10 {fill:#B6E8E9}
    .fil5 {fill:#FDFDFD}
   ]]>
  </style>
 </defs>
 <g id="Camada_x0020_1">
  <metadata id="CorelCorpID_0Corel-Layer"/>
  <g id="_1276228397440">
   <path class="fil0" d="M12842.29 14222.64c79.42,-34.44 613.11,-91.65 764.24,-117.83 1601.7,-293.68 2739.95,-1015.31 3915.95,-2101.55 410.81,-379.47 -788.49,471.18 -792.47,473.64 -1562.65,968.95 -3846.37,1420.68 -5639.45,935.24 -265.39,-71.88 -496.6,-156.21 -749,-264.13 -1224.53,-540.29 -1569.78,-1299.32 -1741.64,-1390.65 -145.7,281.6 270,873.89 388.62,1061.2 593.45,875.21 1743.24,1255.69 2752.82,1348.73 211.96,19.52 273.43,56.93 505.3,55.35 198.16,-1.36 397.35,0 595.63,0z"/>
   <path class="fil1" d="M5989.53 9039.58c590.94,-145.08 1117.66,112.18 1286.48,526.66 190.62,467.93 -82.03,954.94 -682.9,1100.52 -957.28,231.94 -1659.73,-537.63 -1186.78,-1266.79 116.66,-179.83 302.32,-291.42 583.2,-360.39zm10 -427.28c-449.17,70.93 -769.88,173.02 -991.37,442.7 -208.66,254.07 -352.85,684.22 -249.82,1104.31 202.01,823.69 1085.46,1054.08 1866.18,944.73 1911.32,-267.69 1571.68,-2838.5 -624.99,-2491.74z"/>
   <path class="fil2" d="M27131.37 10496.02l0 -280.03c-102.35,-162.68 -99.57,-272.68 -258.56,-381.14 -453.77,-309.46 -1071.1,-161.51 -1628.03,-215.66 -581.09,-56.52 -497.36,-495.53 -136.34,-572.58 347.77,-74.21 833.65,-7.79 1202.93,-35.48l637.67 17.19 -19.96 -409.11c-480.71,-10 -1865.14,-61.5 -2220.11,83.92 -268.48,110.04 -475.56,327.52 -429.45,710.71 91.65,761.27 1103.14,620.77 1704.7,624.52 563.78,3.54 723.33,263.29 507.2,473.58 -353.01,343.52 -1554.27,76.64 -2130.12,164.7l7.5 381.29c543.31,6.88 1122.83,14.45 1664.21,-3.84 386.41,-13.06 817.89,17.18 1028.88,-424.73l69.48 -133.34z"/>
   <path class="fil1" d="M8896.57 11069.7l505.56 -20.94 3.41 -1691.75c89.69,55.98 1118,1289.92 1283.76,1495.51 206.51,256.06 157.38,194.56 721.06,207.31l-12.9 -2411.26 -468.66 -8.01 13.5 1700.51c-107.54,-86.45 -314.62,-349.35 -436.27,-481.94 -196.89,-214.62 -981.4,-1235.13 -1133.8,-1267.3 -81.24,-17.13 -386.4,-14.48 -472.85,-3.47l-2.81 2481.34z"/>
   <path class="fil3" d="M11461.45 6932.38c18.55,41.41 -42.04,32.49 66.83,29.49 254.3,-65.85 549.15,-225.88 805.84,-326.52 1472.11,-560.84 3811.62,-845.63 5159.72,133.98 407,295.76 590.18,504.23 796.53,940.75 132.65,-24.56 265.3,-49.16 397.95,-73.73 138.14,-455.07 -611.84,-1176 -916.91,-1377.72 -544.86,-360.29 -1042.56,-467.81 -1669.16,-557.22 -240.36,-34.31 -189.04,-50.24 -484.49,-50.24 -191.03,0 -382.06,0 -573.09,0 -111.14,51.6 -819.2,131.01 -1030.86,180.9 -797.16,188.04 -1473.56,494.62 -2171.28,872.13 -144.1,77.96 -252.84,159.96 -381.08,228.18z"/>
   <path class="fil4" d="M19286.7 11068.56c5.96,-6.24 12.71,-24.76 16.05,-20.31 40.71,54.09 30.87,-38.98 32.29,-40.46 -294.5,-357.65 -978.72,-879.89 -1148.24,-1191.05 292.89,-399.9 884.65,-799.02 1093.81,-1194.35 -652.34,-22.77 -595.19,-43.02 -1050.98,460.24 -61.53,67.96 -379.44,461.81 -476.07,381.52 -232.16,-192.83 -715.07,-818.26 -933.09,-845.73 -151.86,-19.15 -396.85,-2.34 -558.48,-0.29 252.81,409.05 912.94,848.07 1147.99,1225.33 -145.9,156.81 -1141.87,1130.17 -1157.2,1176.19 -32.64,98.05 311.82,61.4 405.67,61.31 337.34,-0.26 430.28,-230.14 690.22,-482.82 37.72,-36.71 426.81,-422.62 476.07,-401.08 256.66,112.19 583.93,863.33 1149.38,876.14 101.08,2.3 211.18,-2.43 312.58,-4.64z"/>
   <path class="fil2" d="M23182.84 8639.36c-72.51,-31.82 -144.48,-21.64 -243.54,-22.05 -64.34,-0.28 -230.32,-18.04 -268.2,34.44 -80.58,224.62 44.06,1064.73 -17.22,1416.67 -80.01,459.86 -381.93,617.55 -889.57,621.71 -1245.6,10.22 -798.04,-1113.64 -893.26,-2063.07l-516.41 -9.53c-56.48,407.7 -55.12,1496.18 79.67,1834.9 373.03,937.32 2248.93,863.33 2655.24,48.41 121.92,-244.55 191.53,-1602.33 93.29,-1861.48z"/>
   <path class="fil5" d="M5989.53 9039.58c-280.88,68.97 -466.54,180.56 -583.2,360.39 -472.95,729.16 229.5,1498.73 1186.78,1266.79 600.87,-145.58 873.52,-632.59 682.9,-1100.52 -168.82,-414.48 -695.54,-671.74 -1286.48,-526.66z"/>
   <path class="fil1" d="M1310.17 9750.23l0 326.77c105.59,213.48 103.98,699.86 838.63,902.94 528.08,145.99 1108.26,97.04 1671.78,95.59l8.77 -428.07c-823.15,14.67 -1964.14,156.21 -1976.15,-777.29 -12.87,-1002.29 1115.13,-809.68 1963.63,-834.66l7.73 -421.67c-658.58,5.68 -1812.22,-114.07 -2265.4,464.47 -63.42,80.99 -125.3,174.18 -166.52,288.04 -44.02,121.61 -50.99,296.71 -82.47,383.88z"/>
   <path class="fil6" d="M12667.7 10041.33c822.89,2.36 1645.76,4.73 2468.66,7.09 5.42,-494.83 113.72,-396.34 -374.52,-420.59 -693.4,-34.44 -1398.28,-16.65 -2091.84,12.21l-2.3 401.29z"/>
   <path class="fil0" d="M12661.01 11064.81c836.96,2.52 1673.89,5.08 2510.86,7.6 -4.64,-525.14 111.33,-407.16 -405.49,-411.76 -703.27,-6.25 -1406.58,-12.53 -2109.85,-18.8l4.48 422.96z"/>
   <path class="fil0" d="M12665.11 9027.53c838.13,3.85 1676.26,7.7 2514.39,11.54 -4.51,-516.84 110.51,-400.75 -404.42,-404.16 -701.63,-4.63 -1403.23,-9.3 -2104.86,-13.94l-5.11 406.56z"/>
   <path class="fil7" d="M9827.96 8002.82c22.2,64.4 -36.71,51.79 61.06,47.09 91.05,-98.62 161.7,-158.2 250.1,-245.34 98.27,-96.85 149.2,-158.48 262.05,-245.4 94.77,-72.98 493.86,-393.5 573.02,-418.45 9.05,-51.06 21.89,-39.33 -24.6,-44.94 -177.5,43.81 -484.65,289.4 -619.04,393.03 -84.49,65.19 -205.15,166.46 -273.75,233.07 -88.71,86.13 -149.74,192.82 -228.84,280.94z"/>
   <path class="fil8" d="M17857.54 12162.53c-253.98,197.18 -327.34,371.68 -665.55,613.42 -292.05,208.78 -658.4,396.28 -920.38,591.37 369.18,-16.65 1468.39,-915.68 1612.64,-1216.21l-26.71 11.42z"/>
   <path class="fil9" d="M26311.37 9011.13c103.38,43.62 537.95,70.21 658.33,29.77l11.7 -321.06c-16.97,-138.04 -5.46,-67.42 -52.32,-100.63l19.96 409.11 -637.67 -17.19z"/>
   <path class="fil10" d="M9889.02 8049.91c-97.77,4.7 -38.86,17.31 -61.06,-47.09 -69.29,45.67 -24.35,-39.23 -61.88,36.84 23.66,29.77 -25.01,56.74 64.34,58.09 60.27,0.95 47.15,-34.37 58.6,-47.84z"/>
   <path class="fil11" d="M17706.79 11801.79c-265.11,185.7 7.75,138.43 15.95,-7.69l-15.95 7.69z"/>
   <path class="fil12" d="M11528.28 6961.87c-108.87,3 -48.28,11.92 -66.83,-29.49 -36.9,28.8 -39.83,-32.29 -25.54,46.84 47.72,8.76 -9.31,22.55 50.33,3.87l42.04 -21.22z"/>
   <path class="fil9" d="M10974.19 7140.72c44.37,-46.48 65.31,67.09 26.58,-72.47l-51.18 27.53c46.49,5.61 33.65,-6.12 24.6,44.94z"/>
   <path class="fil13" d="M19286.7 11068.56l73.67 -1.67c17.66,-113.32 11.35,-21.73 -25.33,-59.1 -1.42,1.48 8.42,94.55 -32.29,40.46 -3.34,-4.45 -10.09,14.07 -16.05,20.31z"/>
   <path class="fil13" d="M16216.89 11054.62c-0.25,44.57 59.35,36.84 41.06,-11.73 -15.04,-39.99 -44.09,1.29 -41.06,11.73z"/>
  </g>
 </g>
</svg>
