<?xml version="1.0" standalone="no"?>
<!DOCTYPE svg PUBLIC "-//W3C//DTD SVG 20010904//EN"
 "http://www.w3.org/TR/2001/REC-SVG-20010904/DTD/svg10.dtd">
<svg version="1.0" xmlns="http://www.w3.org/2000/svg"
 width="1199.000000pt" height="529.000000pt" viewBox="0 0 1199.000000 529.000000"
 preserveAspectRatio="xMidYMid meet">

<g transform="translate(0.000000,529.000000) scale(0.100000,-0.100000)"
fill="#000000" stroke="none">
<path d="M3834 3221 c-216 -26 -348 -169 -331 -359 18 -188 173 -302 411 -302
127 0 249 43 317 111 138 138 121 371 -34 478 -87 59 -228 87 -363 72z m206
-122 c52 -19 89 -49 118 -99 35 -58 37 -157 6 -211 -49 -84 -159 -127 -294
-116 -136 11 -217 81 -227 196 -11 123 50 205 182 242 39 11 170 3 215 -12z"/>
<path d="M2870 3209 c-118 -23 -222 -111 -255 -215 -51 -162 33 -333 194 -395
49 -19 82 -22 254 -27 l197 -5 0 55 0 56 -177 4 c-152 4 -185 7 -223 25 -84
38 -120 97 -120 197 0 61 19 104 63 143 58 50 117 63 299 63 l158 0 0 55 0 55
-172 -1 c-95 -1 -193 -5 -218 -10z"/>
<path d="M4618 3209 c-17 -9 -18 -36 -18 -324 l0 -315 63 4 62 3 3 226 2 226
77 -87 c43 -48 83 -93 90 -100 7 -7 64 -70 127 -140 l114 -127 64 0 63 0 3
280 c2 154 0 299 -3 323 l-6 43 -62 -3 -62 -3 0 -223 c0 -122 -3 -222 -6 -222
-6 0 -139 145 -289 315 -119 134 -120 135 -164 135 -22 0 -49 -5 -58 -11z"/>
<path d="M5594 3206 c-3 -8 -4 -31 -2 -52 l3 -39 328 -3 327 -2 0 55 0 55
-325 0 c-269 0 -327 -2 -331 -14z"/>
<path d="M7109 3133 c-13 -16 -12 -17 4 -4 9 7 17 15 17 17 0 8 -8 3 -21 -13z"/>
<path d="M5595 2939 c-4 -6 -4 -30 0 -55 l6 -44 320 0 319 0 0 55 0 55 -319 0
c-217 0 -322 -3 -326 -11z"/>
<path d="M5592 2628 l3 -53 328 -2 327 -1 0 54 0 54 -331 0 -330 0 3 -52z"/>
<path d="M6573 2613 c-13 -8 -23 -19 -23 -24 0 -14 24 0 38 21 14 24 14 24
-15 3z"/>
<path d="M7320 2590 c0 -5 5 -10 10 -10 6 0 10 5 10 10 0 6 -4 10 -10 10 -5 0
-10 -4 -10 -10z"/>
<path d="M4526 2328 c38 -169 162 -322 345 -427 268 -152 637 -197 993 -120
278 60 572 192 789 355 81 61 269 233 256 234 -3 0 -19 -11 -35 -25 -16 -15
-74 -56 -129 -93 -393 -264 -937 -396 -1388 -337 -161 21 -272 55 -422 130
-145 72 -251 155 -350 272 -32 37 -61 69 -66 71 -4 2 -1 -25 7 -60z"/>
</g>
</svg>
